{"title":"Doctor Doctor - S01E03","uid":15962549,"size":1167719987,"categoryP":"video","categoryS":"tv_shows","magnet":"?xt=urn:btih:b1d7ded3eca6fa64bb74add41ebe65ace44e6bf3&amp;dn=Doctor+Doctor+-+S01E03&amp;tr=udp%3A%2F%2Ftracker.leechers-paradise.org%3A6969&amp;tr=udp%3A%2F%2Fzer0day.ch%3A1337&amp;tr=udp%3A%2F%2Fopen.demonii.com%3A1337&amp;tr=udp%3A%2F%2Ftracker.coppersurfer.tk%3A6969&amp;tr=udp%3A%2F%2Fexodus.desync.com%3A6969","seeders":4,"leechers":2,"uploader":"Bullrout","files":1,"time":1475685664,"description":"Doctor Doctor - S01E03\r\n\r\nHugh finds an unlikely test subject for his revolutionary new artificial heart. Passions are aroused when Charlie and Matt host a wild B&amp;S Ball at their Brewery.\r\n\r\nComplete name                            : Doctor Doctor - S01E03.mkv\r\nFormat                                   : Matroska\r\nFormat version                           : Version 4 / Version 2\r\nFile size                                : 1.09 GiB\r\nDuration                                 : 47 min 14 s\r\nOverall bit rate mode                    : Variable\r\nOverall bit rate                         : 3 296 kb/s\r\nEncoded date                             : UTC 2016-10-04 15:24:25\r\nWriting application                      : mkvmerge v9.4.2 ('So High') 64bit\r\nWriting library                          : libebml v1.3.4 + libmatroska v1.4.5\r\n\r\nVideo\r\nID                                       : 2\r\nFormat                                   : AVC\r\nFormat/Info                              : Advanced Video Codec\r\nFormat profile                           :   \r\nFormat settings, CABAC                   : Yes\r\nFormat settings, ReFrames                : 3 frames\r\nCodec ID                                 : V_MPEG4/ISO/AVC\r\nDuration                                 : 47 min 14 s\r\nBit rate mode                            : Variable\r\nBit rate                                 : 2 910 kb/s\r\nMaximum bit rate                         : 3 000 kb/s\r\nWidth                                    : 1 280 pixels\r\nHeight                                   : 720 pixels\r\nDisplay aspect ratio                     : 16:9\r\nFrame rate mode                          : Constant\r\nFrame rate                               : 25.000 FPS\r\nStandard                                 : PAL\r\nColor space                              : YUV\r\nChroma subsampling                       : 4:2:0\r\nBit depth                                : 8 bits\r\nScan type                                : Progressive\r\nBits/(Pixel*Frame)                       : 0.126\r\nStream size                              : 983 MiB (88%)\r\nWriting library                          : x264 core 112\r\nDefault                                  : Yes\r\nForced                                   : No\r\nColor range                              : Limited\r\nColor primaries                          : BT.709\r\nTransfer characteristics                 : BT.709\r\nMatrix coefficients                      : BT.709\r\n\r\nAudio\r\nID                                       : 1\r\nFormat                                   : AC-3\r\nFormat/Info                              : Audio Coding 3\r\nMode extension                           : CM (complete main)\r\nFormat settings, Endianness              : Big\r\nCodec ID                                 : A_AC3\r\nDuration                                 : 47 min 14 s\r\nBit rate mode                            : Constant\r\nBit rate                                 : 384 kb/s\r\nChannel(s)                               : 6 channels\r\nChannel positions                        : Front: L C R, Side: L R, LFE\r\nSampling rate                            : 48.0 kHz\r\nFrame rate                               : 31.250 FPS (1536 spf)\r\nCompression mode                         : Lossy\r\nStream size                              : 130 MiB (12%)\r\nDefault                                  : Yes\r\nForced                                   : No","torrent":{"xt":"urn:btih:b1d7ded3eca6fa64bb74add41ebe65ace44e6bf3","amp;dn":"Doctor+Doctor+-+S01E03","amp;tr":["udp%3A%2F%2Ftracker.leechers-paradise.org%3A6969","udp%3A%2F%2Fzer0day.ch%3A1337","udp%3A%2F%2Fopen.demonii.com%3A1337","udp%3A%2F%2Ftracker.coppersurfer.tk%3A6969","udp%3A%2F%2Fexodus.desync.com%3A6969"],"infoHash":"b1d7ded3eca6fa64bb74add41ebe65ace44e6bf3","infoHashBuffer":{"type":"Buffer","data":[177,215,222,211,236,166,250,100,187,116,173,212,30,190,101,172,228,78,107,243]},"announce":[],"urlList":[]}}